<svg width="24" height="24" viewBox="0 0 24 24" fill="none" xmlns="http://www.w3.org/2000/svg">
<path d="M4.1 9.7C4.38333 8.03333 5.17917 6.66667 6.4875 5.6C7.79583 4.53333 9.3 4 11 4C12.0833 4 13.0958 4.25 14.0375 4.75C14.9792 5.25 15.8 5.925 16.5 6.775V4H18V9.7H12.3V8.2H15.65C15.1167 7.4 14.4458 6.75 13.6375 6.25C12.8292 5.75 11.95 5.5 11 5.5C9.71667 5.5 8.57083 5.8875 7.5625 6.6625C6.55417 7.4375 5.90833 8.45 5.625 9.7H4.1ZM19.925 21L15.325 16.4C14.7083 16.9167 14.0333 17.3083 13.3 17.575C12.5667 17.8417 11.8 17.975 11 17.975C9.91667 17.975 8.89583 17.75 7.9375 17.3C6.97917 16.85 6.16667 16.2 5.5 15.35V18H4V12.3H9.7V13.8H6.225C6.775 14.6 7.46667 15.2458 8.3 15.7375C9.13333 16.2292 10.0333 16.475 11 16.475C12.25 16.475 13.3625 16.0833 14.3375 15.3C15.3125 14.5167 15.9583 13.5167 16.275 12.3H17.8C17.7167 12.8667 17.5542 13.4042 17.3125 13.9125C17.0708 14.4208 16.7667 14.8917 16.4 15.325L21 19.925L19.925 21Z" fill="#1A73E8"/>
</svg>
