<svg width="17" height="16" viewBox="0 0 17 16" fill="none" xmlns="http://www.w3.org/2000/svg">
<path d="M7.17917 16C6.89583 16 6.65833 15.9042 6.46667 15.7125C6.275 15.5208 6.17917 15.2833 6.17917 15V9L0.204167 1.375C-0.0291666 1.09167 -0.0625001 0.791667 0.104167 0.475C0.270833 0.158333 0.529166 0 0.879166 0H15.4792C15.8292 0 16.0875 0.158333 16.2542 0.475C16.4208 0.791667 16.3875 1.09167 16.1542 1.375L10.1792 9V15C10.1792 15.2833 10.0833 15.5208 9.89167 15.7125C9.7 15.9042 9.4625 16 9.17917 16H7.17917Z" fill="#1A73E8"/>
</svg>
